<?xml version="1.0" encoding="utf-8"?>
<!-- Svg Vector Icons : http://www.onlinewebfonts.com/icon -->
<!DOCTYPE svg PUBLIC "-//W3C//DTD SVG 1.1//EN" "http://www.w3.org/Graphics/SVG/1.1/DTD/svg11.dtd">
<svg version="1.1" xmlns="http://www.w3.org/2000/svg" xmlns:xlink="http://www.w3.org/1999/xlink" x="0px" y="0px" viewBox="0 0 256 256" enable-background="new 0 0 256 256" xml:space="preserve">
<metadata> Svg Vector Icons : http://www.onlinewebfonts.com/icon </metadata>
<g><g><g><g><path fill="#000000" d="M108.9,117.7h37.7V141c35.8-1.8,59.9-8.4,74.5-14.1c14.4-5.6,22.1-11.3,24.8-13.5V86.6c0-6.9-5.6-12.4-12.4-12.4h-20.7V61.8h-13.5V39c0-11.4-9.3-20.7-20.7-20.7H77.3c-11.4,0-20.7,9.3-20.7,20.7v22.8H43.1v12.4H22.4c-6.9,0-12.4,5.6-12.4,12.4V116c11.7,7.2,42.4,22.1,98.9,24.9L108.9,117.7L108.9,117.7z M73.2,61.8V39c0-2.3,1.9-4.1,4.1-4.1h101.4c2.3,0,4.1,1.9,4.1,4.1v22.8h-13.5v12.4H86.6V61.8H73.2L73.2,61.8z"/><path fill="#000000" d="M61.8,149.9v87.8h134.6v-88.4c-13.8,3-30.2,5.3-49.7,6.2v6.5c0,9.8-7.9,17.7-17.7,17.7h-2.2c-9.8,0-17.7-7.9-17.7-17.7v-6.5C90.8,154.6,75.2,152.6,61.8,149.9z"/><path fill="#000000" d="M22.4,237.7h24.8v-91.1c-16.6-4.3-28.8-9.5-37.3-13.9v26.3v66.2C10,232.2,15.6,237.7,22.4,237.7z"/><path fill="#000000" d="M246,225.3v-66.2V131c-7.4,4.4-18.9,10-35.2,14.7v92h22.8C240.4,237.7,246,232.2,246,225.3z"/></g></g><g></g><g></g><g></g><g></g><g></g><g></g><g></g><g></g><g></g><g></g><g></g><g></g><g></g><g></g><g></g></g></g>
</svg>